Genre: Family | Fantasy
Language:English
IMDb:http://www.imdb.com/title/tt1646876
Source:BluRay.x264.THUGLiNE

General
Complete name :16.Wishes.2010.720p.BRRip.H264.Feel-Free
Format : MPEG-4
Format profile : Base Media
Codec ID : mp42
File size : 1.32 GiB
Duration : 1h 30mn
Overall bit rate : 2 094 Kbps
Video #1
Codec ID : avc1
Codec ID/Info : Advanced Video Coding
Duration : 1h 30mn
Bit rate mode : Variable
Bit rate : 1 612 Kbps
Width : 1 280 pixels
Height : 720 pixels
Display aspect ratio : 16:9
Frame rate mode : Constant
Frame rate : 23.976 fps
Resolution : 24 bits
Colorimetry : 4:2:0
Scan type : Progressive
Bits/(Pixel*Frame) : 0.073
Stream size : 1.01 GiB (77%)
Audio #2
ID : 2
Format : AAC
Format/Info : Advanced Audio Codec
Format version : Version 4
Format profile : LC
Format settings, SBR : No
Codec ID : 40
Duration : 1h 30mn
Bit rate mode : Constant
Bit rate : 477 Kbps
Nominal bit rate : 480 Kbps
Channel(s) : 6 channels
Channel positions : Front: L C R, Rear: L R, LFE
Sampling rate : 48.0 KHz
Resolution : 16 bits
Stream size : 308 MiB (23%)

Plot:
Debby Ryan (Disney's The Suite Life on Deck) stars with
Jean-Luc Bilodeau (Kyle XY) in this spellbinding comedy
about what happens when your most outrageous wishes come
outrageously true! Abby Jensen has been dreaming about her
"sweet 16" since she was a little girl but it starts out
anything but sweet. Then she receives a box of mysteriously
magical birthday candles. And suddenly, Abby's every wish
is instantly granted: the cherry-red sports car, the way-cool
clothes, the uber-popularity at school. But when Abby makes
a wish that turns her perfect new life totally upside down
she and her best friend Jay have just one chance to make
things right and to learn you have to be careful what you
wish for really, really careful!

TRAILER:http://www.imdb.com/video/screenplay/vi1558055193/



screens
 
http://rapidhdd.com/images/1830vlcsnap-2010-11-18-13h28m04s212.png
 
http://www.rapidhdd.com/images/94077vlcsnap-2010-11-18-13h28m56s220.png
 
http://www.rapidhdd.com/images/352384vlcsnap-2010-11-18-13h29m35s90.png
 
http://www.rapidhdd.com/images/372922vlcsnap-2010-11-18-13h30m15s222.png
 
http://www.rapidhdd.com/images/180048vlcsnap-2010-11-18-13h30m49s75.png